<svg xmlns:inkscape="http://www.inkscape.org/namespaces/inkscape" xmlns:sodipodi="http://sodipodi.sourceforge.net/DTD/sodipodi-0.dtd" xmlns="http://www.w3.org/2000/svg" xmlns:svg="http://www.w3.org/2000/svg" version="1.1" width="502.36004638671875" height="102.44983673095703" sodipodi:docname="pross.svg" inkscape:version="0.0" inkscape:export-filename="../f4aea042/arrow.svg" inkscape:export-xdpi="96" inkscape:export-ydpi="96" style=""><rect id="backgroundrect" width="100%" height="100%" x="0" y="0" fill="none" stroke="none"/>
  <defs id="defs22"/>
  <sodipodi:namedview id="namedview20" pagecolor="#ffffff" bordercolor="#000000" borderopacity="0.25" inkscape:showpageshadow="2" inkscape:pageopacity="0.0" inkscape:pagecheckerboard="0" inkscape:deskcolor="#d1d1d1" showgrid="false" inkscape:zoom="2.72" inkscape:cx="383.08824" inkscape:cy="49.632353" inkscape:window-width="1920" inkscape:window-height="1017" inkscape:window-x="0" inkscape:window-y="36" inkscape:window-maximized="1" inkscape:current-layer="g24"/>
  
<g class="currentLayer" style=""><title>Layer 1</title><g inkscape:groupmode="layer" inkscape:label="Image" id="g24" class="">
    <path id="rect654" style="opacity:0.95;fill:#ffffff;fill-opacity:0.93" d="M197.09452972436907,102.44983667904614 L-259.62921707563095,102.19409667904614 C-260.0028027756309,102.19388667904616 -232.73187327563096,80.82370467904616 -220.81259227563095,65.99673467904614 C-219.17604127563095,63.960949679046166 -216.91440427563094,57.363661679046146 -216.93874427563094,51.43658467904615 C-216.96162827563094,45.864149679046164 -219.22363427563096,40.88412167904616 -219.25066427563095,40.844182679046156 C-231.08212327563095,23.36244367904615 -245.51000427563093,13.787345679046155 -258.54999669563097,0.35259555904615036 C-258.87951624563095,0.013100539046149606 -74.17690027563094,0.5273648390461573 -73.70380027563095,0.5264492090461486 L198.31184972436904,-0.0000030109538469158537 C198.78495972436906,-0.0009186709538513416 219.28086972436904,20.052756679046155 219.66963972436906,20.322382679046157 c18.9578,13.147728 23.84327,22.910984 22.95926,31.381562 c-1.73306,16.606178 -13.57905,20.442095 -14.3325,24.270388 c-0.09140000000000015,0.46421 -30.72875,26.475774 -31.20187,26.475504 z" sodipodi:nodetypes="ssssssssssss"/>
  </g><rect fill="#ffffff" stroke-dashoffset="" fill-rule="nonzero" id="svg_1" x="491.5779709815979" y="177.14678955078125" width="265.4128432273865" height="102" style="color: rgb(0, 0, 0);" class="" fill-opacity="1" opacity="0.91" stroke="#ffffff" stroke-opacity="1"/></g></svg>