<svg id="SvgjsSvg1071" width="288" height="288" xmlns="http://www.w3.org/2000/svg" version="1.1" xmlns:xlink="http://www.w3.org/1999/xlink" xmlns:svgjs="http://svgjs.com/svgjs"><defs id="SvgjsDefs1072"></defs><g id="SvgjsG1073"><svg xmlns="http://www.w3.org/2000/svg" width="288" height="288" data-name="Layer 1" viewBox="0 0 24 24"><path d="m23 14h-1v-9a5.006 5.006 0 0 0 -5-5h-10a5.006 5.006 0 0 0 -5 5v9h-1a1 1 0 0 0 0 2h10v4h-2a3 3 0 0 0 -3 3 1 1 0 0 0 2 0 1 1 0 0 1 1-1h6a1 1 0 0 1 1 1 1 1 0 0 0 2 0 3 3 0 0 0 -3-3h-2v-4h10a1 1 0 0 0 0-2zm-19-9a3 3 0 0 1 3-3h10a3 3 0 0 1 3 3v9h-16z" fill="#677788" class="color000 svgShape"></path></svg></g></svg>